<?xml version="1.0" standalone="no"?>
<!DOCTYPE svg PUBLIC "-//W3C//DTD SVG 20010904//EN"
 "http://www.w3.org/TR/2001/REC-SVG-20010904/DTD/svg10.dtd">
<svg version="1.0" xmlns="http://www.w3.org/2000/svg"
 width="516.000000pt" height="337.000000pt" viewBox="0 0 516.000000 337.000000"
 preserveAspectRatio="xMidYMid meet">
<metadata>
Created by potrace 1.16, written by Peter Selinger 2001-2019
</metadata>
<g transform="translate(0.000000,337.000000) scale(0.100000,-0.100000)"
fill="#000000" stroke="none">
<path d="M2601 3244 c-17 -14 -31 -34 -31 -45 0 -14 -10 -20 -40 -25 -49 -8
-72 -33 -79 -86 -6 -39 -9 -43 -43 -51 -69 -16 -73 -27 -76 -228 -2 -110 -7
-179 -13 -179 -11 0 -74 34 -138 74 -58 37 -109 35 -145 -4 l-27 -31 -57 32
c-31 18 -70 41 -87 51 -44 26 -82 23 -113 -10 -17 -18 -42 -31 -67 -35 -70
-11 -100 -82 -54 -128 18 -18 19 -25 10 -46 -22 -48 -14 -79 32 -117 38 -31
41 -37 30 -55 -19 -30 -16 -74 5 -97 11 -10 82 -55 159 -99 88 -50 139 -84
136 -92 -3 -7 -35 -29 -71 -49 -133 -74 -152 -98 -131 -162 13 -40 6 -48 -86
-97 -92 -50 -116 -86 -90 -137 13 -26 13 -33 0 -59 -34 -66 -3 -119 70 -119
33 0 46 -6 67 -30 31 -35 70 -39 118 -12 30 16 31 16 41 -1 6 -10 24 -27 41
-37 38 -23 58 -17 193 63 55 32 117 68 138 78 l37 19 0 -105 c0 -151 12 -175
95 -187 18 -3 20 -13 25 -115 5 -121 19 -153 66 -153 32 0 54 -10 54 -24 0
-23 46 -56 76 -56 33 0 70 31 76 65 2 14 14 21 42 26 49 8 76 39 76 88 0 35 2
37 45 49 69 18 75 38 75 237 0 114 3 165 11 165 6 0 51 -23 100 -50 106 -60
139 -63 179 -20 15 17 31 30 34 30 3 0 38 -20 78 -44 40 -24 83 -47 96 -51 30
-9 77 11 96 40 11 17 25 23 46 23 39 -1 80 36 80 72 0 15 -9 39 -21 53 -16 21
-18 31 -10 46 17 30 13 79 -6 97 -10 8 -29 24 -43 34 -22 16 -23 21 -12 39 14
24 16 70 2 91 -5 8 -75 53 -156 100 -81 47 -149 90 -150 95 -2 6 42 36 97 68
111 65 127 86 108 144 -14 42 -14 41 87 102 95 56 112 83 89 137 -13 32 -13
38 0 57 16 23 19 54 9 82 -10 25 -62 47 -94 40 -22 -5 -31 -2 -40 14 -6 12
-24 28 -41 36 -27 15 -33 14 -75 -5 -48 -21 -64 -19 -64 6 0 8 -16 22 -35 30
-45 18 -44 19 -277 -117 -36 -21 -71 -39 -77 -39 -7 0 -11 37 -11 105 0 140
-23 185 -94 185 l-26 0 0 100 c0 54 -5 110 -11 123 -13 28 -48 47 -84 47 -15
0 -25 6 -25 14 0 16 -59 66 -78 66 -6 0 -24 -12 -41 -26z m66 -32 c10 -6 13
-78 15 -282 3 -252 4 -275 21 -278 16 -3 17 13 17 223 0 233 5 265 40 265 36
0 40 -31 40 -294 0 -249 1 -256 20 -256 19 0 20 7 20 129 0 135 7 157 47 149
16 -3 18 -16 18 -143 l0 -140 -27 -13 c-40 -19 -114 -99 -137 -146 -10 -23
-22 -72 -26 -109 l-7 -67 -64 0 -64 0 0 33 c0 54 -29 149 -57 187 -30 40 -62
70 -74 70 -21 0 -14 -22 27 -83 36 -53 47 -79 51 -122 3 -31 2 -55 -3 -55 -14
0 -56 31 -82 59 -54 63 -57 77 -60 351 -2 140 0 265 3 277 8 32 53 32 60 1 3
-13 6 -88 8 -168 2 -129 4 -145 20 -148 16 -3 17 12 17 218 0 133 4 229 10
241 12 21 45 25 57 7 4 -7 10 -114 13 -238 4 -191 7 -225 20 -225 13 0 15 38
18 269 1 178 6 274 13 283 13 15 28 16 46 5z m657 -478 c8 -22 -8 -47 -41 -64
-15 -8 -66 -37 -113 -65 -47 -27 -93 -53 -102 -57 -21 -9 -23 -22 -5 -37 14
-11 15 -10 281 146 116 68 149 75 154 33 3 -23 -9 -32 -100 -87 -57 -33 -145
-84 -195 -112 -87 -49 -108 -71 -82 -86 9 -6 130 60 375 207 89 52 129 60 139
28 3 -11 4 -24 1 -29 -5 -7 -142 -88 -315 -186 -123 -70 -151 -88 -151 -100 0
-8 4 -17 10 -20 10 -6 16 -4 253 134 132 77 161 90 177 81 21 -11 25 -27 12
-47 -4 -7 -48 -36 -97 -64 -50 -29 -115 -67 -145 -84 -30 -18 -89 -51 -130
-75 -41 -23 -76 -44 -78 -45 -1 -1 0 -10 4 -19 8 -22 24 -16 126 45 45 27 93
52 106 56 54 14 54 -50 0 -81 -18 -10 -58 -32 -88 -48 -30 -17 -59 -34 -65
-39 -16 -15 -44 -10 -98 18 -44 22 -65 27 -132 27 -66 0 -90 -5 -135 -27 -51
-25 -55 -25 -73 -9 -23 20 -47 65 -47 86 0 9 12 22 28 30 68 35 136 129 148
205 10 65 -13 50 -56 -35 -37 -75 -49 -90 -93 -119 -38 -24 -48 -9 -34 53 18
85 78 157 170 206 29 14 115 64 192 110 139 84 187 100 199 70z m-1450 -37
c33 -19 132 -75 220 -127 87 -51 165 -93 174 -94 9 0 18 6 20 15 2 12 -26 33
-97 73 -109 63 -124 76 -119 103 6 33 44 24 150 -37 l105 -60 7 -70 c9 -89 51
-176 109 -222 23 -19 50 -37 60 -41 9 -3 17 -13 17 -22 0 -22 -24 -66 -47 -87
-18 -16 -22 -16 -73 9 -45 22 -69 27 -135 27 -53 0 -90 -6 -109 -16 l-30 -15
23 -12 c16 -9 35 -10 69 -2 66 13 192 -13 192 -41 0 -5 -21 -18 -46 -30 -36
-15 -62 -19 -113 -16 -65 3 -105 21 -270 118 -14 9 -72 42 -129 74 -107 61
-132 86 -111 112 17 21 30 18 101 -23 203 -117 218 -123 218 -88 0 12 -81 65
-175 115 -80 43 -194 112 -206 126 -9 11 -10 20 -2 32 16 27 37 25 94 -9 30
-17 68 -39 84 -49 17 -9 78 -45 138 -79 102 -59 127 -66 127 -36 0 7 -103 73
-230 146 -126 73 -231 138 -234 146 -9 22 5 43 30 43 12 0 84 -36 160 -80 75
-44 137 -80 139 -80 1 0 39 -22 85 -49 76 -46 110 -54 110 -29 0 14 -24 33
-90 68 -30 16 -111 63 -180 103 -97 56 -126 78 -128 96 -3 20 11 40 27 41 2 0
31 -15 65 -33z m864 -527 c11 -19 27 -49 38 -66 18 -32 18 -32 -9 -73 -15 -22
-27 -45 -27 -50 0 -27 -59 -38 -169 -32 -5 1 -13 11 -17 23 -4 13 -18 40 -32
61 -26 39 -26 39 -8 71 11 17 26 45 34 61 9 17 19 32 23 35 4 3 39 5 78 5 70
0 70 0 89 -35z m361 -60 c32 -10 96 -41 142 -68 46 -27 133 -78 193 -113 123
-72 140 -89 113 -116 -17 -17 -20 -17 -70 10 -29 15 -90 49 -137 77 -86 51
-103 55 -108 29 -2 -10 45 -42 135 -94 253 -145 272 -160 240 -193 -15 -15
-19 -15 -49 1 -45 22 -122 66 -252 144 -102 60 -136 71 -136 41 0 -14 6 -19
95 -68 33 -18 103 -59 155 -90 52 -31 120 -71 151 -88 32 -18 60 -40 63 -48 8
-20 -10 -44 -33 -44 -9 0 -117 59 -241 130 -123 72 -230 128 -237 126 -33 -13
-1 -39 169 -136 100 -58 194 -115 208 -127 l25 -22 -22 -22 -22 -22 -83 48
c-46 26 -96 55 -113 65 -16 9 -81 47 -144 84 -63 37 -121 64 -128 62 -31 -12
-6 -36 98 -95 100 -57 110 -65 107 -89 -2 -16 -10 -28 -21 -30 -9 -2 -66 24
-126 58 l-108 62 -6 65 c-11 109 -59 191 -157 265 l-35 26 24 47 c14 26 30 49
37 52 7 2 30 -5 51 -16 68 -34 150 -45 213 -29 35 9 55 20 55 29 0 11 -20 14
-100 14 -144 0 -210 37 -123 69 85 30 104 31 177 6z m-974 -91 c17 -9 56 -23
87 -29 48 -11 66 -10 124 4 37 9 76 24 88 31 32 23 43 18 71 -28 25 -44 32
-77 16 -77 -5 0 -32 -18 -59 -39 -55 -44 -112 -142 -112 -193 0 -25 2 -27 19
-18 11 5 25 27 32 47 17 54 53 107 87 132 51 36 65 24 50 -44 -22 -101 -64
-145 -224 -236 -45 -25 -80 -46 -196 -113 -104 -60 -119 -64 -139 -40 -15 18
-4 41 26 58 11 6 42 25 70 42 27 16 78 46 113 64 34 19 62 40 62 46 0 30 -36
21 -118 -28 -48 -28 -112 -65 -142 -81 -30 -17 -71 -40 -90 -52 -19 -12 -43
-25 -54 -28 -22 -9 -46 9 -46 34 0 18 22 33 292 188 92 53 114 75 85 87 -7 2
-114 -54 -237 -126 -124 -71 -232 -130 -241 -130 -22 0 -41 24 -33 43 5 14 93
68 362 222 56 32 102 65 102 72 0 25 -28 25 -67 0 -21 -13 -60 -36 -88 -52
-27 -15 -96 -54 -152 -87 -110 -64 -148 -72 -148 -29 0 24 -2 23 205 146 30
18 75 44 100 58 156 87 161 90 141 110 -8 8 -20 6 -43 -6 -32 -17 -45 -24
-141 -80 -57 -34 -90 -30 -85 11 2 22 21 37 112 88 112 64 115 65 171 33z
m573 -118 c7 -4 15 -35 18 -72 6 -72 37 -139 89 -189 54 -52 71 -16 19 40 -49
54 -86 181 -54 188 24 4 83 -51 110 -104 25 -48 25 -54 28 -322 3 -247 1 -273
-14 -279 -9 -3 -24 -2 -33 4 -13 8 -17 37 -21 169 -4 141 -7 159 -22 162 -17
3 -18 -13 -18 -227 0 -217 -1 -231 -19 -241 -25 -13 -27 -13 -45 6 -14 13 -16
49 -16 240 0 209 -1 225 -17 222 -17 -3 -18 -27 -23 -278 l-5 -275 -30 0 -30
0 -5 275 c-5 251 -6 275 -22 278 -10 2 -18 -2 -19 -10 0 -7 0 -105 1 -218 1
-120 -3 -217 -9 -233 -12 -32 -45 -36 -61 -8 -6 12 -10 118 -10 275 0 249 -1
256 -20 256 -19 0 -20 -7 -20 -129 0 -138 -7 -160 -50 -146 -19 6 -20 14 -20
140 l0 134 43 29 c93 65 139 140 152 247 4 33 13 63 19 67 15 10 88 10 104 -1z"/>
<path d="M596 624 c-6 -15 72 -261 101 -316 14 -29 44 -37 61 -16 18 24 114
317 108 333 -7 18 -40 20 -53 3 -8 -11 -36 -95 -69 -211 -9 -31 -23 -8 -55 96
-18 56 -36 108 -42 115 -13 17 -44 15 -51 -4z"/>
<path d="M1112 627 c-12 -7 -28 -22 -36 -33 -19 -27 -30 -122 -21 -191 6 -46
13 -63 40 -90 28 -28 40 -33 82 -33 57 0 109 28 123 66 6 14 10 70 10 124 0
95 -1 101 -29 132 -24 27 -35 32 -87 35 -37 2 -68 -2 -82 -10z m122 -69 c11
-16 16 -46 16 -101 0 -69 -3 -81 -25 -102 -31 -32 -58 -32 -84 1 -17 22 -21
41 -21 110 0 95 11 114 65 114 24 0 39 -7 49 -22z"/>
<path d="M1527 633 c-13 -12 -8 -328 5 -341 13 -13 153 -17 182 -6 9 3 16 14
16 24 0 23 -19 30 -86 30 l-54 0 0 138 c0 94 -4 142 -12 150 -13 13 -41 16
-51 5z"/>
<path d="M1924 604 c-10 -56 1 -246 16 -270 21 -34 64 -54 114 -54 36 0 52 6
78 29 l33 29 0 149 0 148 -25 0 -25 0 -2 -115 c-3 -139 -7 -155 -37 -175 -19
-13 -28 -13 -50 -4 -33 15 -35 23 -37 150 -3 121 -10 149 -38 149 -15 0 -22
-9 -27 -36z"/>
<path d="M2394 627 c-2 -7 -3 -87 -2 -177 l3 -165 25 0 c25 0 25 2 30 95 3 52
9 94 14 94 6 -1 27 -30 47 -65 71 -121 73 -124 99 -124 l25 0 0 175 0 175 -25
0 c-25 0 -25 -2 -30 -95 -3 -52 -9 -95 -14 -95 -5 0 -25 27 -44 60 -64 111
-82 135 -102 135 -12 0 -23 -6 -26 -13z"/>
<path d="M2850 625 c-18 -21 3 -43 43 -47 l32 -3 5 -145 5 -145 25 0 25 0 5
145 c5 135 6 145 25 148 54 8 65 13 65 31 0 26 -19 31 -125 31 -70 0 -96 -4
-105 -15z"/>
<path d="M3292 628 c-18 -18 -17 -322 2 -337 9 -8 44 -11 96 -9 65 2 85 7 94
20 15 25 4 31 -72 37 l-67 6 0 40 c0 40 0 40 40 43 67 4 85 11 85 32 0 21 -18
28 -85 32 -40 3 -40 3 -40 43 l0 40 65 5 c53 4 65 8 68 24 2 10 -2 22 -10 27
-20 13 -162 11 -176 -3z"/>
<path d="M3702 627 c-13 -16 -22 -294 -11 -325 7 -17 15 -22 32 -20 20 3 22
10 27 73 7 98 24 98 90 1 33 -49 57 -76 69 -76 35 0 33 31 -4 92 l-37 59 31
28 c26 24 31 37 31 73 0 55 -20 84 -68 98 -52 14 -147 13 -160 -3z"/>
<path d="M4156 625 c-9 -25 -7 -318 3 -333 5 -8 17 -12 27 -10 18 3 19 15 19
178 0 171 -1 175 -21 178 -13 2 -24 -4 -28 -13z"/>
<path d="M4476 619 c-40 -31 -56 -77 -56 -159 0 -81 16 -128 55 -158 57 -45
172 -18 196 46 6 15 9 73 7 129 -3 96 -5 104 -30 130 -22 21 -39 27 -85 31
-49 3 -62 0 -87 -19z m128 -61 c21 -30 21 -148 1 -188 -20 -39 -51 -47 -84
-23 -24 19 -26 26 -29 110 -3 104 7 123 63 123 24 0 39 -7 49 -22z"/>
</g>
</svg>
